# xmcd
#
# Track frame offsets: 
#        150
#        17411
#        33530
#        44881
#        77523
#        93134
#        103735
#        121131
#        130748
#        142505
#        155026
#        177843
#        188361
#        218822
#        230714
#        243513
#        260405
#        275858
#        288703
#        303340
#
# Disc length: 4393 seconds
#
# Revision: 3
# Processed by: cddbd v1.5.2PL0 Copyright (c) Steve Scherf et al.
# Submitted via: ExactAudioCopy v0.90b4
#
DISCID=16112714
DTITLE=Various Artist - 40 Famous Blues Songs CD 2
DYEAR=1998
DGENRE=Blues
TTITLE0=Etta James - Dust Your Broom
TTITLE1=B.B. King - It's My Own Faulr Baby
TTITLE2=John Lee Hooker - Boogie Chillen 2
TTITLE3=Big Mama Thornton - Ball And Chain
TTITLE4=Nina Simone - I Want A Little Sugar In My Bowl
TTITLE5=Lightnin´Hopkins - Nothin' But The Blues
TTITLE6=Mississippi John Hurt - Nobody's Business But Mine
TTITLE7=Ike and Tina Turner - I'm Blue
TTITLE8=Little Milton - We're Gonna Make It
TTITLE9=Eric Clapton - Freight Loader
TTITLE10=Big Bill Broonzy - Ridin' On Down
TTITLE11=Elmore James - Done Somebody Wrong
TTITLE12=Brownie Mcghee and Sonny Terry - Everybody's Blue
TTITLE13=Lightning Slim - Lightning's Bad Luck
TTITLE14=Dinah Washington - All Or Nothing
TTITLE15=Ike and Tina Turner - I Smell Trouble
TTITLE16=Bigjoe Williams - Nobody Knows You When You Down And Out
TTITLE17=Nina Simone - Backlash Blues
TTITLE18=Muddy Waters - Baby Please Don't Go
TTITLE19=John Mayall - Ridin' On The L and N
EXTD=YEAR: 1998 ID3G: 0
EXTT0=
EXTT1=
EXTT2=
EXTT3=
EXTT4=
EXTT5=
EXTT6=
EXTT7=
EXTT8=
EXTT9=
EXTT10=
EXTT11=
EXTT12=
EXTT13=
EXTT14=
EXTT15=
EXTT16=
EXTT17=
EXTT18=
EXTT19=
PLAYORDER=
